HIERARCHY
ROOT Hips
{
    OFFSET 0.000000 0.000000 0.000000
    CHANNELS 6 Xposition Yposition Zposition Zrotation Xrotation Yrotation
        JOINT Chest
        {
            OFFSET -0.000000 34.099812 -0.000000
            CHANNELS 3 Zrotation Xrotation Yrotation
            JOINT Neck
            {
                OFFSET -0.000000 25.785578 0.000000
                CHANNELS 3 Zrotation Xrotation Yrotation
                JOINT Head
                {
                    OFFSET -0.000000 11.061110 0.000000
                    CHANNELS 3 Zrotation Xrotation Yrotation
                    End Site
                    {
                        OFFSET -0.000000 17.094444 0.000000
                    }
                }
            }
            JOINT LeftCollar
            {
                OFFSET -0.000000 25.785578 0.000000
                CHANNELS 3 Zrotation Xrotation Yrotation
                JOINT LeftShoulder
                {
                    OFFSET 19.000000 -0.000000 0.000000
                    CHANNELS 3 Zrotation Xrotation Yrotation
                    JOINT LeftElbow
                    {
                        OFFSET 29.227484 0.000000 0.000000
                        CHANNELS 3 Zrotation Xrotation Yrotation
                        JOINT LeftWrist
                        {
                            OFFSET 22.377386 0.000000 0.000000
                            CHANNELS 3 Zrotation Xrotation Yrotation
                            End Site
                            {
                                OFFSET 0.000000 -15.083334 0.000000
                            }
                        }
                    }
                }
            }
            JOINT RightCollar
            {
                OFFSET -0.000000 25.785578 0.000000
                CHANNELS 3 Zrotation Xrotation Yrotation
                JOINT RightShoulder
                {
                    OFFSET -19.000000 0.000000 0.000000
                    CHANNELS 3 Zrotation Xrotation Yrotation
                    JOINT RightElbow
                    {
                        OFFSET -29.227484 0.000000 0.000000
                        CHANNELS 3 Zrotation Xrotation Yrotation
                        JOINT RightWrist
                        {
                            OFFSET -22.377386 0.000000 0.000000
                            CHANNELS 3 Zrotation Xrotation Yrotation
                            End Site
                            {
                                OFFSET -0.000000 -15.083334 0.000000
                            }
                        }
                    }
                }
            }
        }
    JOINT LeftHip
    {
        OFFSET 12.066666 0.000000 0.000000
        CHANNELS 3 Zrotation Xrotation Yrotation
        JOINT LeftKnee
        {
            OFFSET -0.000000 -38.619030 0.000000
            CHANNELS 3 Zrotation Xrotation Yrotation
            JOINT LeftAnkle
            {
                OFFSET -0.000000 -42.566540 0.000000
                CHANNELS 3 Zrotation Xrotation Yrotation
                End Site
                {
                    OFFSET -0.000000 -5.027778 17.094444
                }
            }
        }
    }
    JOINT RightHip
    {
        OFFSET -12.066666 0.000000 0.000000
        CHANNELS 3 Zrotation Xrotation Yrotation
        JOINT RightKnee
        {
            OFFSET -0.000000 -38.619030 0.000000
            CHANNELS 3 Zrotation Xrotation Yrotation
            JOINT RightAnkle
            {
                OFFSET -0.000000 -42.566540 0.000000
                CHANNELS 3 Zrotation Xrotation Yrotation
                End Site
                {
                    OFFSET -0.000000 -5.027778 17.094444
                }
            }
        }
    }
}
MOTION
Frames:    10
Frame Time:    0.010000
25.634327    88.114563    -46.565536    0.086848    0.816226    -24.716194    4.062132    12.337281    -7.652553    -3.019699    3.414863    -3.300090    5.184922    -15.163976    -2.800228    -11.136809    -0.169755    2.146759    -66.163513    13.660830    -7.076504    -13.329630    15.463206    -98.442207    114.047890    13.083196    2.280142    30.961782    0.187877    0.749765    25.879280    53.793888    17.766884    -15.002802    -8.239879    57.160007    -103.688950    -7.504250    -15.062945    -5.180629    7.723789    -9.906145    -2.666180    4.446213    0.103664    4.500537    -16.467859    47.086140    -8.959228    -29.087814    5.945967    1.839698    28.523670    1.750781    -4.754857    -15.316730    -16.702034    
25.297922    88.127342    -46.382111    0.021161    0.928980    -24.526764    4.848749    14.058140    -7.200235    -4.412516    -1.672336    -2.213472    4.910738    -12.575822    -1.603599    -11.509036    -0.394808    5.802975    -66.973724    13.384975    -9.941159    -13.939939    16.748589    -98.020149    115.203636    13.136662    2.267905    28.678968    0.269105    1.531795    24.067076    53.957420    21.052643    -14.584941    -7.879139    57.430542    -104.045837    -7.442414    -15.081842    -4.936519    7.810455    -10.315773    -2.568523    3.453358    11.227526    1.723432    -16.000805    36.966267    -8.999002    -29.177568    5.495541    2.137854    28.951788    1.669705    -4.666721    -15.154189    -16.629517    
24.907526    88.106468    -46.134995    -0.121382    0.904484    -24.544792    4.817431    13.653047    -7.406966    -4.547849    -0.621512    -2.209378    5.207372    -13.060046    -1.588397    -11.392803    -0.472210    5.497582    -66.718330    14.199347    -9.642077    -14.127913    16.264820    -97.806732    115.295570    13.009205    0.914021    29.319822    0.355356    1.631907    24.588976    53.944431    19.949236    -14.679709    -8.089525    57.379677    -103.806824    -7.337739    -15.315097    -4.599334    7.997300    -9.792432    -2.567227    4.056300    7.783227    2.192093    -16.239584    39.475231    -8.863376    -29.064533    5.298002    2.404333    29.194944    1.254128    -6.141700    -14.287797    -15.922819    
24.633194    88.111748    -45.973030    -0.193165    0.940313    -24.499191    5.013964    13.854018    -7.368047    -4.581419    -1.092659    -2.129822    5.053662    -12.853429    -1.516185    -11.406773    -0.526170    5.705680    -66.811440    14.294417    -10.006239    -14.312326    16.512104    -97.572845    115.725922    13.085291    0.651299    29.063414    0.382328    1.632602    24.585207    53.757427    20.094524    -14.709849    -8.062756    57.411461    -103.780090    -7.285139    -15.505562    -4.379666    8.080966    -9.699853    -2.538457    4.105243    8.973352    1.695876    -16.255493    38.155125    -8.822196    -29.053392    5.034643    2.583159    29.433117    1.100695    -6.389125    -14.049197    -15.645107    
24.313372    88.118729    -45.782669    -0.275177    0.979025    -24.453394    5.209607    14.007295    -7.341672    -4.493770    -1.382249    -2.116740    4.840780    -12.752642    -1.519703    -11.386901    -0.563948    5.694771    -66.892967    14.400343    -10.283735    -14.524058    16.699812    -97.345787    116.076736    13.152823    0.273141    28.868361    0.376913    1.547835    24.721125    53.515995    20.072353    -14.675803    -8.083478    57.455986    -103.889107    -7.184968    -15.697485    -4.124020    8.174294    -9.565751    -2.523096    4.225821    9.818948    1.250543    -16.328842    37.123512    -8.770504    -29.028629    4.727549    2.771234    29.694799    0.958925    -6.483148    -13.832879    -15.351447    
23.948627    88.125816    -45.563087    -0.368163    1.017041    -24.409201    5.407142    14.134415    -7.333662    -4.461945    -1.608475    -2.093161    4.714951    -12.699001    -1.502977    -11.359087    -0.589295    5.672113    -66.976547    14.533293    -10.539879    -14.715621    16.825752    -97.129616    116.354027    13.242430    -0.095966    28.705780    0.406884    1.485563    24.920422    53.230888    19.945045    -14.606065    -8.038888    57.527359    -103.948044    -7.099548    -15.829895    -3.832538    8.278255    -9.377570    -2.528505    4.417774    10.347948    0.857116    -16.468117    36.355278    -8.704239    -28.979797    4.387287    2.959267    29.967249    0.843477    -6.389114    -13.653211    -15.055941    
23.540400    88.131371    -45.314060    -0.472363    1.051572    -24.369318    5.599074    14.225777    -7.350945    -4.485418    -1.737067    -2.050653    4.672520    -12.717439    -1.462623    -11.325658    -0.566108    5.632377    -67.050812    14.660990    -10.782698    -14.882203    16.923664    -96.900879    116.593521    13.371578    -0.346834    28.590712    0.369659    1.451580    25.126579    53.015369    19.769148    -14.675342    -8.064301    57.547741    -103.926849    -7.009303    -15.992033    -3.506376    8.391994    -9.125288    -2.559544    4.678338    10.629529    0.505517    -16.676817    35.786507    -8.618388    -28.898140    4.028338    3.138144    30.237942    0.765666    -6.099441    -13.519721    -14.771559    
23.091368    88.133911    -45.036144    -0.587275    1.080805    -24.337936    5.777326    14.270008    -7.400831    -4.568559    -1.741534    -1.983923    4.713311    -12.827142    -1.384335    -11.282308    -0.533742    5.577995    -67.132782    14.785897    -10.961790    -14.979533    16.908409    -96.730408    116.667053    13.524324    -0.512541    28.533108    0.407773    1.460368    25.431797    52.721382    19.426115    -14.560342    -8.001648    57.636665    -104.078392    -6.859430    -16.022820    -3.148512    8.512361    -8.803571    -2.618901    5.009509    10.702780    0.188814    -16.960812    35.383842    -8.507630    -28.778204    3.667901    3.300398    30.497070    0.733162    -5.628782    -13.437168    -14.512171    
22.605228    88.132263    -44.730659    -0.711803    1.104141    -24.320148    5.934712    14.259561    -7.487335    -4.708189    -1.611775    -1.884520    4.827743    -13.032252    -1.265899    -11.226205    -0.528297    5.510609    -67.232002    14.890399    -11.028248    -14.951774    16.795143    -96.628113    116.549629    13.723075    -0.516125    28.544586    0.380085    1.521134    25.733677    52.503506    19.030846    -14.572285    -8.057296    57.667831    -104.038116    -6.744700    -15.968289    -2.763426    8.634448    -8.413465    -2.706905    5.418625    10.560816    -0.091612    -17.329712    35.160751    -8.366879    -28.618265    3.323882    3.440923    30.738697    0.749819    -5.009953    -13.405409    -14.293137    
22.085804    88.125626    -44.399269    -0.845073    1.121652    -24.320612    6.070899    14.198754    -7.608685    -4.896560    -1.371243    -1.749319    4.998822    -13.310056    -1.108409    -11.162317    -0.542046    5.440269    -67.343460    14.941214    -10.988753    -14.911885    16.669432    -96.520546    116.415169    13.977640    -0.212504    28.612782    0.426214    1.632598    26.128614    52.211662    18.478970    -14.452715    -7.987027    57.756588    -104.058449    -6.598599    -15.767448    -2.355765    8.753053    -7.964393    -2.821043    5.914093    10.185121    -0.330865    -17.790710    35.146103    -8.191687    -28.418510    3.010877    3.556107    30.960077    0.815000    -4.286147    -13.419524    -14.127835    
